<?xml version="1.0" encoding="UTF-8"?>
<svg xmlns="http://www.w3.org/2000/svg" xmlns:xlink="http://www.w3.org/1999/xlink" width="60px" height="30px" viewBox="0 0 60 30" version="1.1">
<g id="surface1">
<rect x="0" y="0" width="60" height="30" style="fill:rgb(100%,100%,100%);fill-opacity:1;stroke:none;"/>
<path style=" stroke:none;fill-rule:nonzero;fill:rgb(0%,53.725493%,25.098041%);fill-opacity:1;" d="M 50.75 10.90625 C 47.71875 13.089844 44.410156 14.984375 40.839844 16.527344 C 39.078125 17.289062 37.175781 17.816406 35.175781 18.066406 C 33.753906 18.242188 32.304688 18.332031 30.832031 18.332031 L 30.832031 30 L 60 30 L 60 4.226562 L 50.75 10.90625 "/>
<path style=" stroke:none;fill-rule:nonzero;fill:rgb(0%,53.725493%,25.098041%);fill-opacity:1;" d="M 9.25 10.90625 C 12.28125 13.089844 15.59375 14.984375 19.160156 16.527344 C 20.921875 17.289062 22.824219 17.816406 24.824219 18.066406 C 26.246094 18.242188 27.695312 18.332031 29.167969 18.332031 L 29.167969 30 L 0 30 L 0 4.226562 L 9.25 10.90625 "/>
<path style=" stroke:none;fill-rule:nonzero;fill:rgb(7.450981%,24.313726%,47.450981%);fill-opacity:1;" d="M 30.832031 0 L 30.832031 16.667969 C 32.234375 16.667969 33.613281 16.578125 34.96875 16.414062 C 36.808594 16.183594 38.554688 15.695312 40.179688 14.996094 C 43.632812 13.5 46.839844 11.671875 49.773438 9.554688 L 60 2.167969 L 60 0 L 30.832031 0 "/>
<path style=" stroke:none;fill-rule:nonzero;fill:rgb(7.450981%,24.313726%,47.450981%);fill-opacity:1;" d="M 29.167969 0 L 29.167969 16.667969 C 27.765625 16.667969 26.386719 16.578125 25.03125 16.414062 C 23.191406 16.183594 21.441406 15.695312 19.820312 14.996094 C 16.367188 13.5 13.160156 11.671875 10.226562 9.554688 L 0 2.167969 L 0 0 L 29.167969 0 "/>
</g>
</svg>
